<svg xmlns="http://www.w3.org/2000/svg" viewBox="0 0 160 210" width="160" height="210">
  <ellipse cx="80" cy="200" rx="65" ry="12" fill="#2C1810" opacity="0.2"/>
  <rect x="106" y="88" width="32" height="112" rx="3" fill="#C8A8D8" stroke="#2C1810" stroke-width="2.5"/>
  <rect x="106" y="88" width="32" height="10" rx="3" fill="#DEC0E8" stroke="#2C1810" stroke-width="2.5"/>
  <rect x="112" y="103" width="20" height="16" rx="3" fill="#D4EEFA" stroke="#2C1810" stroke-width="2"/>
  <line x1="122" y1="103" x2="122" y2="119" stroke="#2C1810" stroke-width="1.5"/>
  <line x1="112" y1="111" x2="132" y2="111" stroke="#2C1810" stroke-width="1.5"/>
  <rect x="112" y="126" width="20" height="16" rx="3" fill="#D4EEFA" stroke="#2C1810" stroke-width="2"/>
  <line x1="122" y1="126" x2="122" y2="142" stroke="#2C1810" stroke-width="1.5"/>
  <line x1="112" y1="134" x2="132" y2="134" stroke="#2C1810" stroke-width="1.5"/>
  <polygon points="106,90 122,53 138,90" fill="#9B59B6" stroke="#2C1810" stroke-width="2.5" stroke-linejoin="round"/>
  <line x1="122" y1="53" x2="122" y2="41" stroke="#2C1810" stroke-width="2"/>
  <circle cx="122" cy="38" r="5" fill="#F9CA24" stroke="#2C1810" stroke-width="2"/>
  <rect x="20" y="118" width="96" height="82" rx="4" fill="#B8D4F0" stroke="#2C1810" stroke-width="3"/>
  <rect x="20" y="118" width="96" height="14" rx="4" fill="#D0E8FF" stroke="#2C1810" stroke-width="3"/>
  <rect x="26" y="138" width="28" height="24" rx="3" fill="#D4EEFA" stroke="#2C1810" stroke-width="2"/>
  <line x1="40" y1="138" x2="40" y2="162" stroke="#2C1810" stroke-width="1.5"/>
  <line x1="26" y1="150" x2="54" y2="150" stroke="#2C1810" stroke-width="1.5"/>
  <rect x="28" y="140" width="11" height="9" rx="1" fill="#F9CA24" opacity="0.4"/>
  <rect x="60" y="138" width="28" height="24" rx="3" fill="#D4EEFA" stroke="#2C1810" stroke-width="2"/>
  <line x1="74" y1="138" x2="74" y2="162" stroke="#2C1810" stroke-width="1.5"/>
  <line x1="60" y1="150" x2="88" y2="150" stroke="#2C1810" stroke-width="1.5"/>
  <rect x="62" y="140" width="11" height="9" rx="1" fill="#1ABC9C" opacity="0.4"/>
  <rect x="26" y="168" width="28" height="22" rx="3" fill="#D4EEFA" stroke="#2C1810" stroke-width="2"/>
  <line x1="40" y1="168" x2="40" y2="190" stroke="#2C1810" stroke-width="1.5"/>
  <line x1="26" y1="179" x2="54" y2="179" stroke="#2C1810" stroke-width="1.5"/>
  <rect x="60" y="168" width="28" height="22" rx="3" fill="#D4EEFA" stroke="#2C1810" stroke-width="2"/>
  <line x1="74" y1="168" x2="74" y2="190" stroke="#2C1810" stroke-width="1.5"/>
  <line x1="60" y1="179" x2="88" y2="179" stroke="#2C1810" stroke-width="1.5"/>
  <rect x="44" y="188" width="24" height="14" rx="3" fill="#1B4F72" stroke="#2C1810" stroke-width="2.5"/>
  <path d="M44,196 Q56,186 68,196" fill="#2874A6" stroke="#2C1810" stroke-width="2"/>
  <rect x="28" y="98" width="8" height="24" rx="2" fill="#5D8AA8" stroke="#2C1810" stroke-width="2"/>
  <ellipse cx="32" cy="97" rx="14" ry="5" fill="#7FB3D3" stroke="#2C1810" stroke-width="2"/>
  <line x1="32" y1="92" x2="14" y2="82" stroke="#2C1810" stroke-width="2"/>
  <circle cx="12" cy="80" r="5" fill="#1ABC9C" stroke="#2C1810" stroke-width="2"/>
  <rect x="16" y="112" width="104" height="9" rx="3" fill="#8AAFD0" stroke="#2C1810" stroke-width="2.5"/>
  <circle cx="52" cy="105" r="3" fill="#F9CA24" stroke="#2C1810" stroke-width="1.5"/>
  <circle cx="68" cy="100" r="2" fill="#9B59B6" stroke="#2C1810" stroke-width="1"/>
  <circle cx="40" cy="102" r="2.5" fill="#1ABC9C" stroke="#2C1810" stroke-width="1"/>
</svg>
