<svg xmlns="http://www.w3.org/2000/svg" viewBox="0 0 160 210" width="160" height="210">
  <ellipse cx="80" cy="200" rx="65" ry="12" fill="#2C1810" opacity="0.2"/>
  <rect x="26" y="102" width="108" height="108" rx="4" fill="#D4C5A0" stroke="#2C1810" stroke-width="3"/>
  <rect x="30" y="110" width="24" height="16" rx="2" fill="#C8B890" stroke="#2C1810" stroke-width="1.5"/>
  <rect x="58" y="110" width="24" height="16" rx="2" fill="#D4C5A0" stroke="#2C1810" stroke-width="1.5"/>
  <rect x="86" y="110" width="24" height="16" rx="2" fill="#C8B890" stroke="#2C1810" stroke-width="1.5"/>
  <rect x="110" y="110" width="20" height="16" rx="2" fill="#D4C5A0" stroke="#2C1810" stroke-width="1.5"/>
  <rect x="30" y="130" width="36" height="16" rx="2" fill="#D4C5A0" stroke="#2C1810" stroke-width="1.5"/>
  <rect x="70" y="130" width="36" height="16" rx="2" fill="#C8B890" stroke="#2C1810" stroke-width="1.5"/>
  <rect x="110" y="130" width="20" height="16" rx="2" fill="#D4C5A0" stroke="#2C1810" stroke-width="1.5"/>
  <rect x="96" y="52" width="22" height="55" rx="3" fill="#8C7A6B" stroke="#2C1810" stroke-width="2.5"/>
  <rect x="93" y="47" width="28" height="9" rx="3" fill="#A89880" stroke="#2C1810" stroke-width="2.5"/>
  <path d="M100,50 Q107,34 114,50" fill="#E74C3C" stroke="#2C1810" stroke-width="1.5"/>
  <path d="M103,50 Q107,38 111,50" fill="#F39C12" stroke="none"/>
  <path d="M105,50 Q107,42 109,50" fill="#F9CA24" stroke="none"/>
  <circle cx="103" cy="39" r="7" fill="#E8E8E8" stroke="#2C1810" stroke-width="2"/>
  <circle cx="111" cy="31" r="9" fill="#F0F0F0" stroke="#2C1810" stroke-width="2"/>
  <circle cx="105" cy="23" r="6" fill="#E8E8E8" stroke="#2C1810" stroke-width="2"/>
  <path d="M54,210 L54,156 Q80,140 106,156 L106,210 Z" fill="#3D2B1A" stroke="#2C1810" stroke-width="3"/>
  <path d="M58,210 L58,158 Q80,144 102,158 L102,210 Z" fill="#2C1A0E" stroke="none"/>
  <ellipse cx="80" cy="182" rx="18" ry="8" fill="#E74C3C" opacity="0.5"/>
  <ellipse cx="80" cy="178" rx="12" ry="6" fill="#F39C12" opacity="0.6"/>
  <rect x="62" y="170" width="32" height="9" rx="2" fill="#78909C" stroke="#2C1810" stroke-width="2"/>
  <rect x="58" y="177" width="40" height="7" rx="2" fill="#90A4AE" stroke="#2C1810" stroke-width="2"/>
  <rect x="66" y="184" width="24" height="10" rx="2" fill="#607D8B" stroke="#2C1810" stroke-width="2"/>
  <circle cx="70" cy="166" r="2.5" fill="#F9CA24" stroke="#2C1810" stroke-width="1"/>
  <circle cx="82" cy="162" r="2" fill="#F39C12" stroke="#2C1810" stroke-width="1"/>
  <line x1="104" y1="168" x2="90" y2="182" stroke="#5D3317" stroke-width="4" stroke-linecap="round"/>
  <rect x="99" y="158" width="18" height="11" rx="3" fill="#607D8B" stroke="#2C1810" stroke-width="2"/>
  <polygon points="18,105 80,57 142,105" fill="#8B4513" stroke="#2C1810" stroke-width="3" stroke-linejoin="round"/>
  <polygon points="18,105 80,57 80,70 26,105" fill="#A0522D" stroke="none"/>
  <line x1="40" y1="98" x2="80" y2="66" stroke="#2C1810" stroke-width="1" opacity="0.3"/>
  <line x1="58" y1="104" x2="80" y2="66" stroke="#2C1810" stroke-width="1" opacity="0.3"/>
</svg>
