<svg xmlns="http://www.w3.org/2000/svg" viewBox="0 0 160 210" width="160" height="210">
  <ellipse cx="80" cy="200" rx="65" ry="12" fill="#2C1810" opacity="0.2"/>
  <rect x="22" y="110" width="112" height="100" rx="4" fill="#E8C87A" stroke="#2C1810" stroke-width="3"/>
  <rect x="22" y="110" width="112" height="14" rx="4" fill="#F0D890" stroke="#2C1810" stroke-width="3"/>
  <line x1="22" y1="142" x2="134" y2="142" stroke="#8B5E3C" stroke-width="3" opacity="0.5"/>
  <line x1="22" y1="168" x2="134" y2="168" stroke="#8B5E3C" stroke-width="3" opacity="0.5"/>
  <line x1="60" y1="110" x2="60" y2="210" stroke="#8B5E3C" stroke-width="2.5" opacity="0.4"/>
  <line x1="100" y1="110" x2="100" y2="210" stroke="#8B5E3C" stroke-width="2.5" opacity="0.4"/>
  <rect x="36" y="154" width="58" height="58" rx="3" fill="#8B5E3C" stroke="#2C1810" stroke-width="2.5"/>
  <rect x="36" y="154" width="58" height="12" rx="3" fill="#A0744E" stroke="#2C1810" stroke-width="2.5"/>
  <line x1="65" y1="154" x2="65" y2="212" stroke="#2C1810" stroke-width="2" opacity="0.4"/>
  <line x1="36" y1="178" x2="94" y2="178" stroke="#2C1810" stroke-width="1.5" opacity="0.4"/>
  <rect x="34" y="151" width="62" height="5" rx="2" fill="#6B6B6B" stroke="#2C1810" stroke-width="1.5"/>
  <circle cx="116" cy="136" r="14" fill="#F0C040" stroke="#2C1810" stroke-width="3"/>
  <circle cx="116" cy="136" r="6" fill="#D4A820" stroke="#2C1810" stroke-width="2"/>
  <rect x="113" y="119" width="6" height="7" rx="1" fill="#F0C040" stroke="#2C1810" stroke-width="2"/>
  <rect x="113" y="146" width="6" height="7" rx="1" fill="#F0C040" stroke="#2C1810" stroke-width="2"/>
  <rect x="99" y="133" width="7" height="6" rx="1" fill="#F0C040" stroke="#2C1810" stroke-width="2"/>
  <rect x="126" y="133" width="7" height="6" rx="1" fill="#F0C040" stroke="#2C1810" stroke-width="2"/>
  <rect x="102" y="123" width="6" height="6" rx="1" fill="#F0C040" stroke="#2C1810" stroke-width="2" transform="rotate(45,105,126)"/>
  <rect x="124" y="123" width="6" height="6" rx="1" fill="#F0C040" stroke="#2C1810" stroke-width="2" transform="rotate(45,127,126)"/>
  <rect x="102" y="143" width="6" height="6" rx="1" fill="#F0C040" stroke="#2C1810" stroke-width="2" transform="rotate(45,105,146)"/>
  <rect x="124" y="143" width="6" height="6" rx="1" fill="#F0C040" stroke="#2C1810" stroke-width="2" transform="rotate(45,127,146)"/>
  <circle cx="104" cy="120" r="8" fill="#F0C040" stroke="#2C1810" stroke-width="2.5"/>
  <circle cx="104" cy="120" r="3" fill="#D4A820" stroke="#2C1810" stroke-width="1.5"/>
  <rect x="101" y="110" width="6" height="5" rx="1" fill="#F0C040" stroke="#2C1810" stroke-width="1.5"/>
  <rect x="101" y="125" width="6" height="5" rx="1" fill="#F0C040" stroke="#2C1810" stroke-width="1.5"/>
  <rect x="94" y="117" width="5" height="6" rx="1" fill="#F0C040" stroke="#2C1810" stroke-width="1.5"/>
  <rect x="109" y="117" width="5" height="6" rx="1" fill="#F0C040" stroke="#2C1810" stroke-width="1.5"/>
  <line x1="108" y1="150" x2="114" y2="172" stroke="#5D3317" stroke-width="4" stroke-linecap="round"/>
  <rect x="103" y="142" width="14" height="10" rx="2" fill="#90A4AE" stroke="#2C1810" stroke-width="2"/>
  <polygon points="16,112 80,64 144,80 144,112" fill="#C0392B" stroke="#2C1810" stroke-width="3" stroke-linejoin="round"/>
  <polygon points="16,112 80,64 80,77 24,109" fill="#E74C3C" stroke="none"/>
  <rect x="94" y="72" width="28" height="20" rx="3" fill="#D4EEFA" stroke="#2C1810" stroke-width="2.5"/>
  <line x1="108" y1="72" x2="108" y2="92" stroke="#2C1810" stroke-width="1.5"/>
  <line x1="94" y1="82" x2="122" y2="82" stroke="#2C1810" stroke-width="1.5"/>
  <rect x="50" y="50" width="14" height="26" rx="3" fill="#8B6914" stroke="#2C1810" stroke-width="2.5"/>
  <rect x="47" y="46" width="20" height="7" rx="3" fill="#B8860B" stroke="#2C1810" stroke-width="2.5"/>
  <circle cx="54" cy="39" r="7" fill="#E8E8E8" stroke="#2C1810" stroke-width="2"/>
  <circle cx="60" cy="32" r="8" fill="#F0F0F0" stroke="#2C1810" stroke-width="2"/>
</svg>
